
        <svg width="400" height="200" viewBox="0 0 400 200" xmlns="http://www.w3.org/2000/svg">
            
        <style>
            
            :root { 
        --bg-color: #ffffff;
        --text-title: #2f3640;
        --text-legend: #636e72;
        --color-0: #4caf50; --color-1: #009688; --color-2: #cddc39; --color-3: #ff9800; --color-4: #795548; --color-5: #607d8b;
     }
            @media (prefers-color-scheme: dark) {
                :root { 
        --bg-color: #0f1914;
        --text-title: #aaccbb;
        --text-legend: #e0e0e0;
        --color-0: #66bb6a; --color-1: #26a69a; --color-2: #d4e157; --color-3: #ffa726; --color-4: #8d6e63; --color-5: #78909c;
     }
            }
        
            text { font-family: -apple-system, BlinkMacSystemFont, "Segoe UI", Helvetica, Arial, sans-serif; }
            .bg { fill: var(--bg-color); }
            .title { fill: var(--text-title); font-weight: bold; font-size: 18px; }
            .legend-text { fill: var(--text-legend); font-size: 14px; }
            .legend-percent { fill: var(--text-legend); opacity: 0.7; font-size: 12px; }
            .decoration { fill: var(--text-title); opacity: 0.1; }
        </style>
    
            <rect width="100%" height="100%" class="bg" rx="10"/>
            
            <!-- Decorations -->
            
        <circle cx="30" cy="180" r="4" class="decoration" />
        <circle cx="380" cy="30" r="6" class="decoration" />
        <path d="M 50 160 L 52 165 L 58 165 L 53 169 L 55 175 L 50 171 L 45 175 L 47 169 L 42 165 L 48 165 Z" class="decoration" transform="rotate(-15 50 160)"/>
        <path d="M 350 180 q 5 -5 10 0 q 5 -5 10 0 q -10 10 -20 0" class="decoration" fill="none" stroke="currentColor" stroke-width="2" />
    

            <text x="20" y="30" class="title">✨ Top Languages by Repo</text>
            <g>
            <path d="
                M 280 30
                A 70 70 0 0 1 340.6217782649107 135
                L 314.6410161513775 120
                A 40 40 0 0 0 280 60
                Z
            " fill="var(--color-0)" stroke="var(--bg-color)" stroke-width="2"/>
        
            <path d="
                M 340.6217782649107 135
                A 70 70 0 0 1 219.3782217350893 135.00000000000003
                L 245.35898384862247 120.00000000000001
                A 40 40 0 0 0 314.6410161513775 120
                Z
            " fill="var(--color-1)" stroke="var(--bg-color)" stroke-width="2"/>
        
            <path d="
                M 219.3782217350893 135.00000000000003
                A 70 70 0 0 1 219.37822173508926 65.00000000000004
                L 245.35898384862244 80.00000000000003
                A 40 40 0 0 0 245.35898384862247 120.00000000000001
                Z
            " fill="var(--color-2)" stroke="var(--bg-color)" stroke-width="2"/>
        
            <path d="
                M 219.37822173508926 65.00000000000004
                A 70 70 0 0 1 279.99999999999994 30
                L 279.99999999999994 60
                A 40 40 0 0 0 245.35898384862244 80.00000000000003
                Z
            " fill="var(--color-3)" stroke="var(--bg-color)" stroke-width="2"/>
        </g>
            <g>
            <rect x="20" y="50" width="12" height="12" fill="var(--color-0)" rx="2"/>
            <text x="40" y="60" class="legend-text">
                JavaScript <tspan class="legend-percent">(33.3%)</tspan>
            </text>
        
            <rect x="20" y="75" width="12" height="12" fill="var(--color-1)" rx="2"/>
            <text x="40" y="85" class="legend-text">
                PHP <tspan class="legend-percent">(33.3%)</tspan>
            </text>
        
            <rect x="20" y="100" width="12" height="12" fill="var(--color-2)" rx="2"/>
            <text x="40" y="110" class="legend-text">
                TypeScript <tspan class="legend-percent">(16.7%)</tspan>
            </text>
        
            <rect x="20" y="125" width="12" height="12" fill="var(--color-3)" rx="2"/>
            <text x="40" y="135" class="legend-text">
                Shell <tspan class="legend-percent">(16.7%)</tspan>
            </text>
        </g>
        </svg>
    